<svg xmlns="http://www.w3.org/2000/svg" width="149.333" height="149.333" viewBox="0 0 1556 1556" shape-rendering="geometricPrecision" text-rendering="geometricPrecision" image-rendering="optimizeQuality" fill-rule="evenodd" clip-rule="evenodd"><g fill-rule="nonzero"><path d="M1565 69c0-43-35-78-78-78H79C36-9 1 26 1 69v220c0 28 28 48 68 20 120-84 277-124 466-124 178 0 326 42 439 128 88 67 146 157 172 264 2 10 4 20 4 32 0 21-4 46-22 70-17 24-50 40-86 39H793c-39 0-72-12-96-29s-39-38-53-53c-30-32-44-51-114-53-45 0-74 9-88 21-14 11-21 25-22 56 1 29 10 46 48 68 29 12 95 32 192 56 181 43 315 96 402 166 95 76 144 185 143 313 0 94-23 180-69 255-8 8-5 38 26 38h327c43 0 78-35 78-78V70zM562 1252c-82-21-164-42-247-62-116-32-215-75-292-130-1-1-2-1-3-2-7-5-20-9-20 15v163c0 11 7 17 14 17h181c38 0 70 15 92 33 23 18 39 39 56 56 35 34 65 62 156 63 51 0 84-10 100-23s24-28 25-62c0-17-4-27-13-37s-25-21-50-31z" fill="#f89b40"/><path d="M980 1556c13 0 25-8 29-13 75-78 110-169 111-280-1-108-37-185-111-247-70-57-193-109-369-150-102-26-170-45-209-62l-1-1-1-1c-57-29-95-82-94-144-1-48 17-95 54-123 37-29 84-39 140-39 70-1 120 24 151 54s48 57 66 68c12 8 23 13 47 13h249c17-1 17-4 19-5 2-2 5-10 4-19 0-5-1-9-1-12-22-89-68-160-142-216-94-72-222-111-387-111-191 0-335 43-440 126-33 27-63 55-88 85-6 7-7 13-7 20v409c0 5 0 16 8 23 6 7 9 10 16 17 69 66 176 119 313 157 83 20 166 41 249 63h2l2 1c36 13 66 30 88 56s34 59 34 93c1 51-19 100-59 130-39 30-90 40-151 41-84 1-142-25-182-57s-63-66-82-80c-13-10-21-14-39-14H45c-32 0-43 18-43 43v96c0 43 37 78 81 78h899z" fill="#2e88a2"/></g></svg>