<svg width="982" height="126" viewBox="0 0 982 126" fill="none" xmlns="http://www.w3.org/2000/svg">
<g clip-path="url(#clip0)">
<path d="M140 5.032V99.824H210.72V80.648H161.896V59.976H196.848V41.208H161.896V24.208H210.72V5.032H140Z" fill="#1482A1"/>
<path d="M272.594 80.648C268.65 82.28 262.802 83.776 256.818 83.776C246.618 83.776 241.45 81.328 241.45 65.008C241.45 47.872 246.618 46.104 256.818 46.104C262.53 46.104 268.65 47.464 272.594 48.96L276.946 31.28C271.506 29.376 262.258 28.288 255.05 28.288C234.378 28.288 220.37 36.312 220.37 64.6C220.37 93.16 234.242 101.728 255.05 101.728C261.986 101.728 271.37 100.504 276.946 98.192L272.594 80.648Z" fill="#1482A1"/>
<path d="M308.315 1.632H287.371V80.104C287.371 90.168 289.683 97.784 294.171 103.224L312.939 96.424C309.675 91.392 308.315 86.224 308.315 79.56V1.632Z" fill="#1482A1"/>
<path d="M348.159 30.192H327.215V99.824H348.159V30.192ZM337.687 0C328.711 0 325.855 1.35999 325.855 9.92799C325.855 19.312 328.711 20.944 337.687 20.944C346.527 20.944 349.519 19.312 349.519 9.92799C349.519 1.35999 346.527 0 337.687 0Z" fill="#1482A1"/>
<path d="M401.906 101.728C419.178 101.728 431.418 93.16 431.418 65.008C431.418 36.584 420.946 28.288 397.282 28.288C386.402 28.288 373.21 30.328 365.73 33.184V125.936H386.674V98.6C390.482 100.232 395.106 101.728 401.906 101.728V101.728ZM397.282 45.696C407.21 45.696 410.474 48.688 410.474 65.552C410.474 80.24 407.346 84.592 397.418 84.592C391.298 84.592 386.674 82.416 386.674 79.288V47.328C389.122 46.376 393.61 45.696 397.282 45.696Z" fill="#1482A1"/>
<path d="M493.394 47.6L497.474 32.096C490.946 29.784 481.154 28.288 473.674 28.288C456.266 28.288 442.802 33.184 442.802 52.088C442.802 66.912 450.554 71.128 465.106 72.488C476.666 73.576 478.978 75.072 478.978 78.88C478.978 84.32 475.17 85 467.01 85C460.21 85 452.458 83.64 447.29 82.144L443.21 97.92C449.602 100.232 460.482 101.728 467.962 101.728C485.506 101.728 499.106 96.696 499.106 77.792C499.106 63.512 491.898 58.616 475.714 56.576C464.97 55.216 463.066 54.264 463.066 50.592C463.066 45.152 466.33 44.608 472.858 44.608C479.93 44.608 487.954 46.104 493.394 47.6V47.6Z" fill="#1482A1"/>
<path d="M542.677 28.288C522.685 28.288 509.901 36.584 509.901 64.6C509.901 93.16 524.453 101.728 544.037 101.728C551.925 101.728 562.261 100.232 569.197 97.92L566.069 82.008C560.901 83.368 551.789 84.32 546.757 84.32C536.693 84.32 531.661 82.28 531.389 71.128H574.501C576.541 35.36 565.797 28.288 542.677 28.288ZM543.629 44.064C551.789 44.064 554.373 46.104 554.645 55.76H531.525C532.749 46.92 534.925 44.064 543.629 44.064Z" fill="#1482A1"/>
<path d="M661.738 2.72C633.586 2.72 619.986 11.696 619.986 35.224C619.986 52.768 629.506 59.432 649.77 61.608C667.586 63.512 670.171 66.368 670.171 72.352C670.171 79.56 665.682 81.6 651.538 81.6C641.202 81.6 631.682 80.104 625.562 78.472L621.074 97.24C628.69 99.96 640.387 101.728 651.811 101.728C681.323 101.728 693.835 94.248 693.835 70.856C693.835 52.768 684.178 44.472 662.554 42.024C646.098 40.256 643.379 38.08 643.379 32.096C643.379 25.568 647.459 22.848 661.603 22.848C672.075 22.848 681.867 24.344 687.579 25.976L692.066 7.208C684.586 4.488 673.162 2.72 661.738 2.72V2.72Z" fill="#1482A1"/>
<path d="M757.359 80.648C753.415 82.28 747.567 83.776 741.583 83.776C731.383 83.776 726.215 81.328 726.215 65.008C726.215 47.872 731.383 46.104 741.583 46.104C747.295 46.104 753.415 47.464 757.359 48.96L761.711 31.28C756.271 29.376 747.023 28.288 739.815 28.288C719.143 28.288 705.135 36.312 705.135 64.6C705.135 93.16 719.007 101.728 739.815 101.728C746.751 101.728 756.135 100.504 761.711 98.192L757.359 80.648Z" fill="#1482A1"/>
<path d="M803.145 101.728C825.857 101.728 837.145 93.16 837.145 64.6C837.145 36.176 825.721 28.288 803.145 28.288C780.977 28.288 769.417 36.176 769.417 64.6C769.417 93.16 780.705 101.728 803.145 101.728V101.728ZM803.145 44.608C813.073 44.608 815.929 46.784 815.929 65.008C815.929 82.552 813.073 85.408 803.145 85.408C793.353 85.408 790.497 82.552 790.497 65.008C790.497 46.784 793.353 44.608 803.145 44.608Z" fill="#1482A1"/>
<path d="M894.923 81.736C891.251 82.688 888.259 83.096 884.859 83.096C874.659 83.096 872.483 79.696 872.483 67.184V30.192H851.811V68.68C851.811 93.568 861.059 101.728 880.371 101.728C892.747 101.728 906.755 98.736 915.595 95.472V30.192H894.923V81.736Z" fill="#1482A1"/>
<path d="M979.741 48.28V30.328H957.981V11.424L937.036 19.992V30.328H925.749V48.28H937.036V76.432C937.036 97.104 945.877 101.728 960.973 101.728C968.453 101.728 976.613 100.232 981.917 98.328L978.517 82.28C975.253 83.232 971.581 84.048 967.365 84.048C960.837 84.048 957.981 81.328 957.981 75.616V48.28H979.741Z" fill="#1482A1"/>
</g>
<g clip-path="url(#clip1)">
<path d="M34.2 81.0044C29.2 79.7044 24.3 78.5044 19.3 77.2044C12.3 75.3044 6.30001 72.7044 1.60001 69.3044C1.50001 69.3044 1.50001 69.2044 1.40001 69.2044C1.00001 68.9044 0.200012 68.7044 0.200012 70.1044V80.0044C0.200012 80.6044 0.600012 81.0044 1.10001 81.0044C4.70001 81.0044 9.30001 81.0044 12.1 81.0044C14.4 81.0044 16.3 81.9044 17.7 83.0044C19.1 84.1044 20 85.3044 21.1 86.4044C23.2 88.5044 25.1 90.1044 30.5 90.2044C33.6 90.2044 35.6 89.6044 36.6 88.8044C37.6 88.0044 38.1 87.1044 38.1 85.1044C38.1 84.1044 37.8 83.5044 37.3 82.8044C36.7 82.2044 35.7 81.5044 34.2 81.0044V81.0044ZM94.9 9.40441C94.9 6.80441 92.8 4.70441 90.2 4.70441H5.00001C2.40001 4.70441 0.300012 6.80441 0.300012 9.40441V22.7044C0.300012 24.4044 2.00001 25.6044 4.40001 23.9044C11.7 18.8044 21.2 16.4044 32.6 16.4044C43.4 16.4044 52.3 18.9044 59.1 24.2044C64.4 28.3044 67.9 33.7044 69.5 40.1044C69.6 40.7044 69.7 41.3044 69.7 42.0044C69.7 43.3044 69.4 44.8044 68.4 46.2044C67.3 47.7044 65.4 48.6044 63.2 48.6044H48.1C45.7 48.6044 43.7 47.9044 42.3 46.8044C40.8 45.7044 39.9 44.5044 39.1 43.6044C37.3 41.7044 36.5 40.5044 32.2 40.4044C29.4 40.4044 27.7 41.0044 26.9 41.7044C26.1 42.4044 25.6 43.2044 25.6 45.1044C25.7 46.8044 26.2 47.9044 28.5 49.2044C30.2 49.9044 34.3 51.2044 40.1 52.6044C51.1 55.2044 59.1 58.4044 64.4 62.6044C70.1 67.2044 73.1 73.8044 73.1 81.5044C73.1 87.2044 71.7 92.4044 68.9 96.9044C68.4 97.4044 68.6 99.2044 70.5 99.2044H90.3C92.9 99.2044 95 97.1044 95 94.5044V9.40441H94.9Z" fill="#FE9915"/>
<path d="M59.6 99.5044C60.4 99.5044 61.1 99.0044 61.4 98.7044C65.9 94.0044 68.1 88.5044 68.1 81.7044C68.1 75.2044 65.9 70.5044 61.3 66.7044C57.1 63.3044 49.6 60.1044 39 57.6044C32.8 56.0044 28.7 54.9044 26.4 53.8044H26.3H26.2C22.7 52.1044 20.4 48.8044 20.5 45.1044C20.5 42.2044 21.5 39.4044 23.8 37.6044C26 35.9044 28.9 35.2044 32.3 35.2044C36.6 35.1044 39.6 36.7044 41.5 38.5044C43.4 40.3044 44.4 41.9044 45.5 42.6044C46.2 43.1044 46.9 43.4044 48.4 43.4044H63.5C64.5 43.4044 64.5 43.2044 64.6 43.1044C64.7 43.0044 64.9 42.5044 64.9 42.0044C64.9 41.7044 64.9 41.4044 64.8 41.3044C63.4 35.9044 60.7 31.6044 56.2 28.2044C50.5 23.8044 42.8 21.5044 32.7 21.5044C21.2 21.5044 12.4 24.1044 6.1 29.1044C4.1 30.7044 2.3 32.4044 0.7 34.3044C0.4 34.7044 0.2 35.1044 0.2 35.5044V60.3044C0.2 60.6044 0.2 61.3044 0.7 61.7044C1.1 62.1044 1.3 62.3044 1.7 62.7044C5.9 66.7044 12.4 69.9044 20.7 72.2044C25.7 73.4044 30.8 74.7044 35.8 76.0044H35.9H36C38.2 76.8044 40 77.8044 41.3 79.4044C42.6 80.9044 43.4 83.0044 43.3 85.0044C43.3 88.1044 42.2 91.1044 39.7 92.9044C37.3 94.7044 34.2 95.4044 30.5 95.4044C25.4 95.4044 21.9 93.9044 19.4 91.9044C17 90.0044 15.6 87.9044 14.4 87.0044C13.6 86.4044 13.1 86.1044 12 86.1044C9.3 86.1044 3.7 86.1044 2.6 86.1044C0.7 86.1044 0 87.2044 0 88.7044C0 89.4044 0 94.5044 0 94.5044C0 97.1044 2.3 99.3044 4.9 99.3044H59.6V99.5044Z" fill="#0082A1"/>
</g>
<defs>
<clipPath id="clip0">
<rect width="841.917" height="125.936" fill="white" transform="translate(140)"/>
</clipPath>
<clipPath id="clip1">
<rect width="94.8" height="125.936" fill="white"/>
</clipPath>
</defs>
</svg>
