<svg width="93" height="94" viewBox="0 0 93 94" fill="none" xmlns="http://www.w3.org/2000/svg">
<g clip-path="url(#clip0)">
<path d="M34.2 76.0044C29.2 74.7044 24.3 73.5044 19.3 72.2044C12.3 70.3044 6.3 67.7044 1.6 64.3044C1.5 64.3044 1.5 64.2044 1.4 64.2044C0.999997 63.9044 0.199997 63.7044 0.199997 65.1044V75.0044C0.199997 75.6044 0.599997 76.0044 1.1 76.0044C4.7 76.0044 9.3 76.0044 12.1 76.0044C14.4 76.0044 16.3 76.9044 17.7 78.0044C19.1 79.1044 20 80.3044 21.1 81.4044C23.2 83.5044 25.1 85.1044 30.5 85.2044C33.6 85.2044 35.6 84.6044 36.6 83.8044C37.6 83.0044 38.1 82.1044 38.1 80.1044C38.1 79.1044 37.8 78.5044 37.3 77.8044C36.7 77.2044 35.7 76.5044 34.2 76.0044V76.0044ZM94.9 4.40441C94.9 1.80441 92.8 -0.295593 90.2 -0.295593H5C2.4 -0.295593 0.299997 1.80441 0.299997 4.40441V17.7044C0.299997 19.4044 2 20.6044 4.4 18.9044C11.7 13.8044 21.2 11.4044 32.6 11.4044C43.4 11.4044 52.3 13.9044 59.1 19.2044C64.4 23.3044 67.9 28.7044 69.5 35.1044C69.6 35.7044 69.7 36.3044 69.7 37.0044C69.7 38.3044 69.4 39.8044 68.4 41.2044C67.3 42.7044 65.4 43.6044 63.2 43.6044H48.1C45.7 43.6044 43.7 42.9044 42.3 41.8044C40.8 40.7044 39.9 39.5044 39.1 38.6044C37.3 36.7044 36.5 35.5044 32.2 35.4044C29.4 35.4044 27.7 36.0044 26.9 36.7044C26.1 37.4044 25.6 38.2044 25.6 40.1044C25.7 41.8044 26.2 42.9044 28.5 44.2044C30.2 44.9044 34.3 46.2044 40.1 47.6044C51.1 50.2044 59.1 53.4044 64.4 57.6044C70.1 62.2044 73.1 68.8044 73.1 76.5044C73.1 82.2044 71.7 87.4044 68.9 91.9044C68.4 92.4044 68.6 94.2044 70.5 94.2044H90.3C92.9 94.2044 95 92.1044 95 89.5044V4.40441H94.9Z" fill="#FE9915"/>
<path d="M59.6 94.5044C60.4 94.5044 61.1 94.0044 61.4 93.7044C65.9 89.0044 68.1 83.5044 68.1 76.7044C68.1 70.2044 65.9 65.5044 61.3 61.7044C57.1 58.3044 49.6 55.1044 39 52.6044C32.8 51.0044 28.7 49.9044 26.4 48.8044H26.3H26.2C22.7 47.1044 20.4 43.8044 20.5 40.1044C20.5 37.2044 21.5 34.4044 23.8 32.6044C26 30.9044 28.9 30.2044 32.3 30.2044C36.6 30.1044 39.6 31.7044 41.5 33.5044C43.4 35.3044 44.4 36.9044 45.5 37.6044C46.2 38.1044 46.9 38.4044 48.4 38.4044H63.5C64.5 38.4044 64.5 38.2044 64.6 38.1044C64.7 38.0044 64.9 37.5044 64.9 37.0044C64.9 36.7044 64.9 36.4044 64.8 36.3044C63.4 30.9044 60.7 26.6044 56.2 23.2044C50.5 18.8044 42.8 16.5044 32.7 16.5044C21.2 16.5044 12.4 19.1044 6.1 24.1044C4.1 25.7044 2.3 27.4044 0.7 29.3044C0.4 29.7044 0.2 30.1044 0.2 30.5044V55.3044C0.2 55.6044 0.2 56.3044 0.7 56.7044C1.1 57.1044 1.3 57.3044 1.7 57.7044C5.9 61.7044 12.4 64.9044 20.7 67.2044C25.7 68.4044 30.8 69.7044 35.8 71.0044H35.9H36C38.2 71.8044 40 72.8044 41.3 74.4044C42.6 75.9044 43.4 78.0044 43.3 80.0044C43.3 83.1044 42.2 86.1044 39.7 87.9044C37.3 89.7044 34.2 90.4044 30.5 90.4044C25.4 90.4044 21.9 88.9044 19.4 86.9044C17 85.0044 15.6 82.9044 14.4 82.0044C13.6 81.4044 13.1 81.1044 12 81.1044C9.3 81.1044 3.7 81.1044 2.6 81.1044C0.7 81.1044 0 82.2044 0 83.7044C0 84.4044 0 89.5044 0 89.5044C0 92.1044 2.3 94.3044 4.9 94.3044H59.6V94.5044Z" fill="#0082A1"/>
</g>
<defs>
<clipPath id="clip0">
<rect width="93" height="94" fill="white"/>
</clipPath>
</defs>
</svg>
